<svg width="78" height="57" viewBox="0 0 78 57" fill="none" xmlns="http://www.w3.org/2000/svg">
<path d="M2.10182 51.0864V39.8864H6.32582C7.48849 39.8864 8.36849 40.1584 8.96582 40.7024C9.56315 41.2464 9.86182 41.9291 9.86182 42.7504C9.86182 43.4651 9.66982 44.0358 9.28582 44.4624C8.90182 44.8784 8.43782 45.1611 7.89382 45.3104C8.32049 45.3958 8.69915 45.5664 9.02982 45.8224C9.37115 46.0784 9.63782 46.3984 9.82982 46.7824C10.0218 47.1664 10.1178 47.5824 10.1178 48.0304C10.1178 48.6064 9.97382 49.1291 9.68582 49.5984C9.40849 50.0571 8.99782 50.4198 8.45382 50.6864C7.90982 50.9531 7.24315 51.0864 6.45382 51.0864H2.10182ZM3.79782 44.6864H6.11782C6.76849 44.6864 7.26449 44.5371 7.60582 44.2384C7.94715 43.9291 8.11782 43.5078 8.11782 42.9744C8.11782 42.4518 7.94715 42.0358 7.60582 41.7264C7.27515 41.4171 6.76849 41.2624 6.08582 41.2624H3.79782V44.6864ZM3.79782 49.6944H6.22982C6.91249 49.6944 7.44049 49.5344 7.81382 49.2144C8.19782 48.8944 8.38982 48.4464 8.38982 47.8704C8.38982 47.2944 8.19249 46.8411 7.79782 46.5104C7.40315 46.1691 6.86982 45.9984 6.19782 45.9984H3.79782V49.6944ZM15.6248 51.2784C14.8462 51.2784 14.1528 51.1078 13.5448 50.7664C12.9475 50.4144 12.4782 49.9291 12.1368 49.3104C11.7955 48.6918 11.6248 47.9718 11.6248 47.1504C11.6248 46.3184 11.7902 45.5878 12.1208 44.9584C12.4622 44.3291 12.9315 43.8384 13.5288 43.4864C14.1368 43.1344 14.8408 42.9584 15.6408 42.9584C16.4195 42.9584 17.0968 43.1344 17.6728 43.4864C18.2488 43.8278 18.6968 44.2864 19.0168 44.8624C19.3368 45.4384 19.4968 46.0731 19.4968 46.7664C19.4968 46.8731 19.4915 46.9904 19.4808 47.1184C19.4808 47.2358 19.4755 47.3691 19.4648 47.5184H13.2888C13.3422 48.2864 13.5928 48.8731 14.0408 49.2784C14.4995 49.6731 15.0275 49.8704 15.6248 49.8704C16.1048 49.8704 16.5048 49.7638 16.8248 49.5504C17.1555 49.3264 17.4008 49.0278 17.5608 48.6544H19.2568C19.0435 49.4011 18.6168 50.0251 17.9768 50.5264C17.3475 51.0278 16.5635 51.2784 15.6248 51.2784ZM15.6248 44.3504C15.0595 44.3504 14.5582 44.5211 14.1208 44.8624C13.6835 45.1931 13.4168 45.6944 13.3208 46.3664H17.8008C17.7688 45.7478 17.5502 45.2571 17.1448 44.8944C16.7395 44.5318 16.2328 44.3504 15.6248 44.3504ZM24.8726 51.2784C24.1046 51.2784 23.4272 51.0971 22.8406 50.7344C22.2539 50.3718 21.7952 49.8758 21.4646 49.2464C21.1339 48.6171 20.9686 47.9024 20.9686 47.1024C20.9686 46.3024 21.1339 45.5931 21.4646 44.9744C21.7952 44.3451 22.2539 43.8544 22.8406 43.5024C23.4379 43.1398 24.1206 42.9584 24.8886 42.9584C25.5179 42.9584 26.0672 43.0811 26.5366 43.3264C27.0166 43.5718 27.3899 43.9184 27.6566 44.3664V39.5664H29.3526V51.0864H27.8326L27.6566 49.8544C27.4006 50.2278 27.0486 50.5584 26.6006 50.8464C26.1526 51.1344 25.5766 51.2784 24.8726 51.2784ZM25.1766 49.8064C25.9019 49.8064 26.4939 49.5558 26.9526 49.0544C27.4219 48.5531 27.6566 47.9078 27.6566 47.1184C27.6566 46.3184 27.4219 45.6731 26.9526 45.1824C26.4939 44.6811 25.9019 44.4304 25.1766 44.4304C24.4512 44.4304 23.8539 44.6811 23.3846 45.1824C22.9152 45.6731 22.6806 46.3184 22.6806 47.1184C22.6806 47.6411 22.7872 48.1051 23.0006 48.5104C23.2139 48.9158 23.5072 49.2358 23.8806 49.4704C24.2646 49.6944 24.6966 49.8064 25.1766 49.8064ZM35.5862 51.0864V39.8864H39.4422C40.3275 39.8864 41.0529 40.0358 41.6182 40.3344C42.1942 40.6331 42.6209 41.0384 42.8982 41.5504C43.1755 42.0518 43.3142 42.6118 43.3142 43.2304C43.3142 43.9238 43.1275 44.5531 42.7542 45.1184C42.3915 45.6838 41.8209 46.0891 41.0422 46.3344L43.4262 51.0864H41.4582L39.2822 46.5744H37.2822V51.0864H35.5862ZM37.2822 45.2944H39.3462C40.1142 45.2944 40.6742 45.1078 41.0262 44.7344C41.3889 44.3611 41.5702 43.8758 41.5702 43.2784C41.5702 42.6811 41.3942 42.2064 41.0422 41.8544C40.6902 41.4918 40.1195 41.3104 39.3302 41.3104H37.2822V45.2944ZM48.4842 51.2784C47.7269 51.2784 47.0442 51.1078 46.4362 50.7664C45.8389 50.4144 45.3642 49.9291 45.0122 49.3104C44.6602 48.6811 44.4842 47.9504 44.4842 47.1184C44.4842 46.2864 44.6602 45.5611 45.0122 44.9424C45.3749 44.3131 45.8602 43.8278 46.4682 43.4864C47.0762 43.1344 47.7535 42.9584 48.5002 42.9584C49.2575 42.9584 49.9349 43.1344 50.5322 43.4864C51.1402 43.8278 51.6202 44.3131 51.9722 44.9424C52.3349 45.5611 52.5162 46.2864 52.5162 47.1184C52.5162 47.9504 52.3349 48.6811 51.9722 49.3104C51.6202 49.9291 51.1402 50.4144 50.5322 50.7664C49.9242 51.1078 49.2415 51.2784 48.4842 51.2784ZM48.4842 49.8224C48.8895 49.8224 49.2629 49.7211 49.6042 49.5184C49.9562 49.3158 50.2389 49.0171 50.4522 48.6224C50.6655 48.2171 50.7722 47.7158 50.7722 47.1184C50.7722 46.5211 50.6655 46.0251 50.4522 45.6304C50.2495 45.2251 49.9722 44.9211 49.6202 44.7184C49.2789 44.5158 48.9055 44.4144 48.5002 44.4144C48.0949 44.4144 47.7162 44.5158 47.3642 44.7184C47.0229 44.9211 46.7455 45.2251 46.5322 45.6304C46.3189 46.0251 46.2122 46.5211 46.2122 47.1184C46.2122 47.7158 46.3189 48.2171 46.5322 48.6224C46.7455 49.0171 47.0229 49.3158 47.3642 49.5184C47.7055 49.7211 48.0789 49.8224 48.4842 49.8224ZM58.0623 51.2784C57.305 51.2784 56.6223 51.1078 56.0143 50.7664C55.417 50.4144 54.9423 49.9291 54.5903 49.3104C54.2383 48.6811 54.0623 47.9504 54.0623 47.1184C54.0623 46.2864 54.2383 45.5611 54.5903 44.9424C54.953 44.3131 55.4383 43.8278 56.0463 43.4864C56.6543 43.1344 57.3317 42.9584 58.0783 42.9584C58.8357 42.9584 59.513 43.1344 60.1103 43.4864C60.7183 43.8278 61.1983 44.3131 61.5503 44.9424C61.913 45.5611 62.0943 46.2864 62.0943 47.1184C62.0943 47.9504 61.913 48.6811 61.5503 49.3104C61.1983 49.9291 60.7183 50.4144 60.1103 50.7664C59.5023 51.1078 58.8197 51.2784 58.0623 51.2784ZM58.0623 49.8224C58.4677 49.8224 58.841 49.7211 59.1823 49.5184C59.5343 49.3158 59.817 49.0171 60.0303 48.6224C60.2437 48.2171 60.3503 47.7158 60.3503 47.1184C60.3503 46.5211 60.2437 46.0251 60.0303 45.6304C59.8277 45.2251 59.5503 44.9211 59.1983 44.7184C58.857 44.5158 58.4837 44.4144 58.0783 44.4144C57.673 44.4144 57.2943 44.5158 56.9423 44.7184C56.601 44.9211 56.3237 45.2251 56.1103 45.6304C55.897 46.0251 55.7903 46.5211 55.7903 47.1184C55.7903 47.7158 55.897 48.2171 56.1103 48.6224C56.3237 49.0171 56.601 49.3158 56.9423 49.5184C57.2837 49.7211 57.657 49.8224 58.0623 49.8224ZM63.9284 51.0864V43.1504H65.4324L65.5764 44.2704C65.8324 43.8651 66.1684 43.5451 66.5844 43.3104C67.0111 43.0758 67.5018 42.9584 68.0564 42.9584C69.3151 42.9584 70.1898 43.4544 70.6804 44.4464C70.9684 43.9878 71.3524 43.6251 71.8324 43.3584C72.3231 43.0918 72.8511 42.9584 73.4164 42.9584C74.4084 42.9584 75.1871 43.2571 75.7524 43.8544C76.3178 44.4518 76.6004 45.3424 76.6004 46.5264V51.0864H74.9044V46.7024C74.9044 45.1664 74.3178 44.3984 73.1444 44.3984C72.5471 44.3984 72.0564 44.6224 71.6724 45.0704C71.2991 45.5184 71.1124 46.1584 71.1124 46.9904V51.0864H69.4164V46.7024C69.4164 45.1664 68.8244 44.3984 67.6404 44.3984C67.0538 44.3984 66.5684 44.6224 66.1844 45.0704C65.8111 45.5184 65.6244 46.1584 65.6244 46.9904V51.0864H63.9284Z" fill="#808080"/>
<g clip-path="url(#clip0_26558_249)">
<path d="M29.4576 13.5139H49.4742C50.2992 13.5139 50.968 12.8451 50.968 12.0201C50.968 11.1951 50.2992 10.5264 49.4742 10.5264H29.4576C28.6326 10.5264 27.9639 11.1951 27.9639 12.0201C27.9638 12.8451 28.6326 13.5139 29.4576 13.5139Z" fill="#666666"/>
<path d="M40.9596 7.30432C40.5236 7.30432 40.1689 7.65898 40.1689 8.09496V9.11998H46.288V8.09496C46.288 7.65898 45.9333 7.30432 45.4973 7.30432H40.9596Z" fill="#666666"/>
<path d="M31.2373 8.09508C31.2373 6.88369 32.2228 5.89819 33.4342 5.89819H37.972C38.5484 5.89819 39.0734 6.12169 39.4657 6.48619C39.858 6.12169 40.383 5.89819 40.9595 5.89819H45.4972C46.7086 5.89819 47.6941 6.88369 47.6941 8.09508V9.12009H49.9764V4.27697C49.9764 3.45197 49.3076 2.7832 48.4826 2.7832H30.4488C29.6238 2.7832 28.9551 3.45197 28.9551 4.27697V9.12009H31.2373V8.09508Z" fill="#666666"/>
<path d="M33.4342 7.30432C32.9982 7.30432 32.6436 7.65898 32.6436 8.09496V9.11998H38.7626V8.09496C38.7626 7.65898 38.4079 7.30432 37.9719 7.30432H33.4342Z" fill="#666666"/>
<path d="M27.4658 14.92V21.3896H28.8721V18.8257H50.0596V21.3896H51.4658V14.92H27.4658Z" fill="#666666"/>
</g>
<defs>
<clipPath id="clip0_26558_249">
<rect width="24" height="24" fill="white" transform="translate(27.4658 0.0864258)"/>
</clipPath>
</defs>
</svg>
