<svg width="96" height="59" viewBox="0 0 96 59" fill="none" xmlns="http://www.w3.org/2000/svg">
<path d="M2.10182 53.8179V42.6179H5.73382C7.04582 42.6179 8.12315 42.8472 8.96582 43.3059C9.81915 43.7645 10.4485 44.4152 10.8538 45.2579C11.2698 46.0899 11.4778 47.0819 11.4778 48.2339C11.4778 49.3752 11.2698 50.3672 10.8538 51.2099C10.4485 52.0419 9.81915 52.6872 8.96582 53.1459C8.12315 53.5939 7.04582 53.8179 5.73382 53.8179H2.10182ZM3.79782 52.3779H5.66982C6.68315 52.3779 7.48315 52.2125 8.06982 51.8819C8.66715 51.5512 9.09382 51.0765 9.34982 50.4579C9.61649 49.8392 9.74982 49.0979 9.74982 48.2339C9.74982 47.3699 9.61649 46.6232 9.34982 45.9939C9.09382 45.3645 8.66715 44.8845 8.06982 44.5539C7.48315 44.2125 6.68315 44.0419 5.66982 44.0419H3.79782V52.3779ZM14.2478 44.3779C13.9278 44.3779 13.6612 44.2819 13.4478 44.0899C13.2452 43.8872 13.1438 43.6365 13.1438 43.3379C13.1438 43.0392 13.2452 42.7939 13.4478 42.6019C13.6612 42.3992 13.9278 42.2979 14.2478 42.2979C14.5678 42.2979 14.8292 42.3992 15.0318 42.6019C15.2452 42.7939 15.3518 43.0392 15.3518 43.3379C15.3518 43.6365 15.2452 43.8872 15.0318 44.0899C14.8292 44.2819 14.5678 44.3779 14.2478 44.3779ZM13.3998 53.8179V45.8819H15.0958V53.8179H13.3998ZM17.3347 53.8179V45.8819H18.8387L18.9667 47.2739C19.212 46.7832 19.5694 46.3992 20.0387 46.1219C20.5187 45.8339 21.068 45.6899 21.6867 45.6899C22.6467 45.6899 23.3987 45.9885 23.9427 46.5859C24.4974 47.1832 24.7747 48.0739 24.7747 49.2579V53.8179H23.0947V49.4339C23.0947 47.8979 22.4654 47.1299 21.2067 47.1299C20.5774 47.1299 20.0547 47.3539 19.6387 47.8019C19.2334 48.2499 19.0307 48.8899 19.0307 49.7219V53.8179H17.3347ZM27.7322 44.3779C27.4122 44.3779 27.1455 44.2819 26.9322 44.0899C26.7295 43.8872 26.6282 43.6365 26.6282 43.3379C26.6282 43.0392 26.7295 42.7939 26.9322 42.6019C27.1455 42.3992 27.4122 42.2979 27.7322 42.2979C28.0522 42.2979 28.3135 42.3992 28.5162 42.6019C28.7295 42.7939 28.8362 43.0392 28.8362 43.3379C28.8362 43.6365 28.7295 43.8872 28.5162 44.0899C28.3135 44.2819 28.0522 44.3779 27.7322 44.3779ZM26.8842 53.8179V45.8819H28.5802V53.8179H26.8842ZM30.8191 53.8179V45.8819H32.3231L32.4511 47.2739C32.6964 46.7832 33.0537 46.3992 33.5231 46.1219C34.0031 45.8339 34.5524 45.6899 35.1711 45.6899C36.1311 45.6899 36.8831 45.9885 37.4271 46.5859C37.9817 47.1832 38.2591 48.0739 38.2591 49.2579V53.8179H36.5791V49.4339C36.5791 47.8979 35.9497 47.1299 34.6911 47.1299C34.0617 47.1299 33.5391 47.3539 33.1231 47.8019C32.7177 48.2499 32.5151 48.8899 32.5151 49.7219V53.8179H30.8191ZM43.5046 51.3859C43.0886 51.3859 42.7046 51.3379 42.3526 51.2419L41.6646 51.9139C41.7819 51.9885 41.9259 52.0525 42.0966 52.1059C42.2672 52.1592 42.5072 52.2072 42.8166 52.2499C43.1259 52.2925 43.5472 52.3352 44.0806 52.3779C45.1366 52.4739 45.8992 52.7299 46.3686 53.1459C46.8379 53.5512 47.0726 54.0952 47.0726 54.7779C47.0726 55.2472 46.9446 55.6899 46.6886 56.1059C46.4432 56.5325 46.0539 56.8739 45.5206 57.1299C44.9979 57.3965 44.3259 57.5299 43.5046 57.5299C42.3952 57.5299 41.4939 57.3165 40.8006 56.8899C40.1179 56.4739 39.7766 55.8392 39.7766 54.9859C39.7766 54.6552 39.8619 54.3245 40.0326 53.9939C40.2139 53.6739 40.4966 53.3699 40.8806 53.0819C40.6566 52.9859 40.4592 52.8845 40.2886 52.7779C40.1286 52.6605 39.9846 52.5432 39.8566 52.4259V52.0419L41.2326 50.6339C40.6139 50.1005 40.3046 49.4019 40.3046 48.5379C40.3046 48.0152 40.4272 47.5405 40.6726 47.1139C40.9286 46.6765 41.2966 46.3299 41.7766 46.0739C42.2566 45.8179 42.8326 45.6899 43.5046 45.6899C43.9526 45.6899 44.3686 45.7539 44.7526 45.8819H47.7126V47.0019L46.3046 47.0819C46.5606 47.5192 46.6886 48.0045 46.6886 48.5379C46.6886 49.0712 46.5606 49.5512 46.3046 49.9779C46.0592 50.4045 45.6966 50.7459 45.2166 51.0019C44.7472 51.2579 44.1766 51.3859 43.5046 51.3859ZM43.5046 50.0579C43.9952 50.0579 44.3899 49.9299 44.6886 49.6739C44.9979 49.4072 45.1526 49.0339 45.1526 48.5539C45.1526 48.0632 44.9979 47.6899 44.6886 47.4339C44.3899 47.1779 43.9952 47.0499 43.5046 47.0499C43.0032 47.0499 42.5979 47.1779 42.2886 47.4339C41.9899 47.6899 41.8406 48.0632 41.8406 48.5539C41.8406 49.0339 41.9899 49.4072 42.2886 49.6739C42.5979 49.9299 43.0032 50.0579 43.5046 50.0579ZM41.3766 54.8259C41.3766 55.2845 41.5792 55.6259 41.9846 55.8499C42.3899 56.0845 42.8966 56.2019 43.5046 56.2019C44.0912 56.2019 44.5659 56.0739 44.9286 55.8179C45.2912 55.5725 45.4726 55.2419 45.4726 54.8259C45.4726 54.5165 45.3499 54.2499 45.1046 54.0259C44.8592 53.8125 44.3952 53.6792 43.7126 53.6259C43.2006 53.5939 42.7472 53.5459 42.3526 53.4819C41.9792 53.6845 41.7232 53.9032 41.5846 54.1379C41.4459 54.3725 41.3766 54.6019 41.3766 54.8259ZM53.3206 53.8179V42.6179H57.1766C58.0619 42.6179 58.7872 42.7672 59.3526 43.0659C59.9286 43.3645 60.3552 43.7699 60.6326 44.2819C60.9099 44.7832 61.0486 45.3432 61.0486 45.9619C61.0486 46.6552 60.8619 47.2845 60.4886 47.8499C60.1259 48.4152 59.5552 48.8205 58.7766 49.0659L61.1606 53.8179H59.1926L57.0166 49.3059H55.0166V53.8179H53.3206ZM55.0166 48.0259H57.0806C57.8486 48.0259 58.4086 47.8392 58.7606 47.4659C59.1232 47.0925 59.3046 46.6072 59.3046 46.0099C59.3046 45.4125 59.1286 44.9379 58.7766 44.5859C58.4246 44.2232 57.8539 44.0419 57.0646 44.0419H55.0166V48.0259ZM66.2186 54.0099C65.4612 54.0099 64.7786 53.8392 64.1706 53.4979C63.5732 53.1459 63.0986 52.6605 62.7466 52.0419C62.3946 51.4125 62.2186 50.6819 62.2186 49.8499C62.2186 49.0179 62.3946 48.2925 62.7466 47.6739C63.1092 47.0445 63.5946 46.5592 64.2026 46.2179C64.8106 45.8659 65.4879 45.6899 66.2346 45.6899C66.9919 45.6899 67.6692 45.8659 68.2666 46.2179C68.8746 46.5592 69.3546 47.0445 69.7066 47.6739C70.0692 48.2925 70.2506 49.0179 70.2506 49.8499C70.2506 50.6819 70.0692 51.4125 69.7066 52.0419C69.3546 52.6605 68.8746 53.1459 68.2666 53.4979C67.6586 53.8392 66.9759 54.0099 66.2186 54.0099ZM66.2186 52.5539C66.6239 52.5539 66.9972 52.4525 67.3386 52.2499C67.6906 52.0472 67.9732 51.7485 68.1866 51.3539C68.3999 50.9485 68.5066 50.4472 68.5066 49.8499C68.5066 49.2525 68.3999 48.7565 68.1866 48.3619C67.9839 47.9565 67.7066 47.6525 67.3546 47.4499C67.0132 47.2472 66.6399 47.1459 66.2346 47.1459C65.8292 47.1459 65.4506 47.2472 65.0986 47.4499C64.7572 47.6525 64.4799 47.9565 64.2666 48.3619C64.0532 48.7565 63.9466 49.2525 63.9466 49.8499C63.9466 50.4472 64.0532 50.9485 64.2666 51.3539C64.4799 51.7485 64.7572 52.0472 65.0986 52.2499C65.4399 52.4525 65.8132 52.5539 66.2186 52.5539ZM75.7967 54.0099C75.0394 54.0099 74.3567 53.8392 73.7487 53.4979C73.1514 53.1459 72.6767 52.6605 72.3247 52.0419C71.9727 51.4125 71.7967 50.6819 71.7967 49.8499C71.7967 49.0179 71.9727 48.2925 72.3247 47.6739C72.6874 47.0445 73.1727 46.5592 73.7807 46.2179C74.3887 45.8659 75.066 45.6899 75.8127 45.6899C76.57 45.6899 77.2474 45.8659 77.8447 46.2179C78.4527 46.5592 78.9327 47.0445 79.2847 47.6739C79.6474 48.2925 79.8287 49.0179 79.8287 49.8499C79.8287 50.6819 79.6474 51.4125 79.2847 52.0419C78.9327 52.6605 78.4527 53.1459 77.8447 53.4979C77.2367 53.8392 76.554 54.0099 75.7967 54.0099ZM75.7967 52.5539C76.202 52.5539 76.5754 52.4525 76.9167 52.2499C77.2687 52.0472 77.5514 51.7485 77.7647 51.3539C77.978 50.9485 78.0847 50.4472 78.0847 49.8499C78.0847 49.2525 77.978 48.7565 77.7647 48.3619C77.562 47.9565 77.2847 47.6525 76.9327 47.4499C76.5914 47.2472 76.218 47.1459 75.8127 47.1459C75.4074 47.1459 75.0287 47.2472 74.6767 47.4499C74.3354 47.6525 74.058 47.9565 73.8447 48.3619C73.6314 48.7565 73.5247 49.2525 73.5247 49.8499C73.5247 50.4472 73.6314 50.9485 73.8447 51.3539C74.058 51.7485 74.3354 52.0472 74.6767 52.2499C75.018 52.4525 75.3914 52.5539 75.7967 52.5539ZM81.6628 53.8179V45.8819H83.1668L83.3108 47.0019C83.5668 46.5965 83.9028 46.2765 84.3188 46.0419C84.7455 45.8072 85.2362 45.6899 85.7908 45.6899C87.0495 45.6899 87.9242 46.1859 88.4148 47.1779C88.7028 46.7192 89.0868 46.3565 89.5668 46.0899C90.0575 45.8232 90.5855 45.6899 91.1508 45.6899C92.1428 45.6899 92.9215 45.9885 93.4868 46.5859C94.0522 47.1832 94.3348 48.0739 94.3348 49.2579V53.8179H92.6388V49.4339C92.6388 47.8979 92.0522 47.1299 90.8788 47.1299C90.2815 47.1299 89.7908 47.3539 89.4068 47.8019C89.0335 48.2499 88.8468 48.8899 88.8468 49.7219V53.8179H87.1508V49.4339C87.1508 47.8979 86.5588 47.1299 85.3748 47.1299C84.7882 47.1299 84.3028 47.3539 83.9188 47.8019C83.5455 48.2499 83.3588 48.8899 83.3588 49.7219V53.8179H81.6628Z" fill="#808080"/>
<g clip-path="url(#clip0_26558_227)">
<path d="M56.0874 10.3105C56.3683 10.3105 56.596 10.0828 56.596 9.8019V8.17045C56.596 7.88955 56.3683 7.66187 56.0874 7.66187L55.3636 7.66627L52.9883 10.3105H56.0874Z" fill="#666666"/>
<path d="M40.8426 10.3103H43.9661L41.5496 7.66174H40.8426C40.5617 7.66174 40.334 7.88943 40.334 8.17033V9.80165C40.334 10.0826 40.5617 10.3103 40.8426 10.3103Z" fill="#666666"/>
<path d="M48.7564 12.9331L53.4696 7.66187H43.46L48.2506 12.9351C48.3864 13.0846 48.6217 13.0836 48.7564 12.9331Z" fill="#666666"/>
<path d="M50.0829 20.3511H49.2073V14.4324C48.9973 14.5537 48.7573 14.6199 48.5097 14.6209C48.5079 14.6209 48.506 14.6209 48.5042 14.6209C48.2548 14.6209 48.0127 14.5546 47.801 14.4324V20.3511H46.8458C46.4574 20.3511 46.1426 20.6659 46.1426 21.0542C46.1426 21.4426 46.4574 21.7574 46.8458 21.7574H50.083C50.4713 21.7574 50.7861 21.4426 50.7861 21.0542C50.7861 20.6659 50.4713 20.3511 50.0829 20.3511Z" fill="#666666"/>
<path d="M42.3955 12.2667H37.8722V3.93157C37.8722 3.54323 37.5573 3.22839 37.169 3.22839C36.7807 3.22839 36.4658 3.54323 36.4658 3.93157V21.1105C36.4658 21.4988 36.7807 21.8137 37.169 21.8137C37.5573 21.8137 37.8722 21.4988 37.8722 21.1105V15.8581H42.9849V21.1105C42.9849 21.4988 43.2997 21.8137 43.688 21.8137C44.0764 21.8137 44.3912 21.4988 44.3912 21.1105V14.2624C44.3912 13.162 43.4959 12.2667 42.3955 12.2667Z" fill="#666666"/>
<path d="M59.762 3.22839C59.3736 3.22839 59.0588 3.54323 59.0588 3.93157V12.2667H54.6402C53.5398 12.2667 52.6445 13.162 52.6445 14.2624V21.1105C52.6445 21.4988 52.9594 21.8137 53.3477 21.8137C53.736 21.8137 54.0509 21.4988 54.0509 21.1105V15.857H59.0588V21.1105C59.0588 21.4988 59.3737 21.8137 59.762 21.8137C60.1503 21.8137 60.4652 21.4988 60.4652 21.1105V3.93157C60.4651 3.54323 60.1503 3.22839 59.762 3.22839Z" fill="#666666"/>
</g>
<defs>
<clipPath id="clip0_26558_227">
<rect width="24" height="24" fill="white" transform="translate(36.4658 0.520996)"/>
</clipPath>
</defs>
</svg>
