<svg width="59" height="60" viewBox="0 0 59 60" fill="none" xmlns="http://www.w3.org/2000/svg">
<path d="M1.60182 54.4348V43.2348H3.29782V48.0348H8.72182V43.2348H10.4178V54.4348H8.72182V49.4268H3.29782V54.4348H1.60182ZM15.3196 54.6268C14.6476 54.6268 14.0929 54.5148 13.6556 54.2908C13.2182 54.0668 12.8929 53.7735 12.6796 53.4108C12.4662 53.0375 12.3596 52.6321 12.3596 52.1948C12.3596 51.4268 12.6582 50.8188 13.2556 50.3708C13.8529 49.9228 14.7062 49.6988 15.8156 49.6988H17.8956V49.5548C17.8956 48.9361 17.7249 48.4721 17.3836 48.1628C17.0529 47.8535 16.6209 47.6988 16.0876 47.6988C15.6182 47.6988 15.2076 47.8161 14.8556 48.0508C14.5142 48.2748 14.3062 48.6108 14.2316 49.0588H12.5356C12.5889 48.4828 12.7809 47.9921 13.1116 47.5868C13.4529 47.1708 13.8796 46.8561 14.3916 46.6428C14.9142 46.4188 15.4849 46.3068 16.1036 46.3068C17.2129 46.3068 18.0716 46.6001 18.6796 47.1868C19.2876 47.7628 19.5916 48.5521 19.5916 49.5548V54.4348H18.1196L17.9756 53.0748C17.7516 53.5121 17.4262 53.8801 16.9996 54.1788C16.5729 54.4775 16.0129 54.6268 15.3196 54.6268ZM15.6556 53.2508C16.1142 53.2508 16.4982 53.1441 16.8076 52.9308C17.1276 52.7068 17.3729 52.4135 17.5436 52.0508C17.7249 51.6881 17.8369 51.2881 17.8796 50.8508H15.9916C15.3196 50.8508 14.8396 50.9681 14.5516 51.2028C14.2742 51.4375 14.1356 51.7308 14.1356 52.0828C14.1356 52.4455 14.2689 52.7335 14.5356 52.9468C14.8129 53.1495 15.1862 53.2508 15.6556 53.2508ZM21.5691 54.4348V42.9148H23.2651V54.4348H21.5691ZM25.4128 54.4348V42.9148H27.1088V54.4348H25.4128ZM30.8406 54.4348L28.5046 46.4988H30.2006L31.7366 52.4828L33.4646 46.4988H35.3526L37.0806 52.4828L38.6166 46.4988H40.3126L37.9766 54.4348H36.2326L34.4086 48.1948L32.5846 54.4348H30.8406ZM44.0383 54.6268C43.3663 54.6268 42.8117 54.5148 42.3743 54.2908C41.937 54.0668 41.6117 53.7735 41.3983 53.4108C41.185 53.0375 41.0783 52.6321 41.0783 52.1948C41.0783 51.4268 41.377 50.8188 41.9743 50.3708C42.5717 49.9228 43.425 49.6988 44.5343 49.6988H46.6143V49.5548C46.6143 48.9361 46.4437 48.4721 46.1023 48.1628C45.7717 47.8535 45.3397 47.6988 44.8063 47.6988C44.337 47.6988 43.9263 47.8161 43.5743 48.0508C43.233 48.2748 43.025 48.6108 42.9503 49.0588H41.2543C41.3077 48.4828 41.4997 47.9921 41.8303 47.5868C42.1717 47.1708 42.5983 46.8561 43.1103 46.6428C43.633 46.4188 44.2037 46.3068 44.8223 46.3068C45.9317 46.3068 46.7903 46.6001 47.3983 47.1868C48.0063 47.7628 48.3103 48.5521 48.3103 49.5548V54.4348H46.8383L46.6943 53.0748C46.4703 53.5121 46.145 53.8801 45.7183 54.1788C45.2917 54.4775 44.7317 54.6268 44.0383 54.6268ZM44.3743 53.2508C44.833 53.2508 45.217 53.1441 45.5263 52.9308C45.8463 52.7068 46.0917 52.4135 46.2623 52.0508C46.4437 51.6881 46.5557 51.2881 46.5983 50.8508H44.7103C44.0383 50.8508 43.5583 50.9681 43.2703 51.2028C42.993 51.4375 42.8543 51.7308 42.8543 52.0828C42.8543 52.4455 42.9877 52.7335 43.2543 52.9468C43.5317 53.1495 43.905 53.2508 44.3743 53.2508ZM50.9658 57.9548L52.8698 53.7788H52.4058L49.2698 46.4988H51.1098L53.5418 52.3708L56.0858 46.4988H57.8778L52.7578 57.9548H50.9658Z" fill="#808080"/>
<g clip-path="url(#clip0_26558_261)">
<path d="M41.0908 8.05127H17.8408C17.6334 8.05127 17.4658 7.88373 17.4658 7.67627V6.17554C17.4658 5.96808 17.6334 5.80054 17.8408 5.80054H41.0908C41.2983 5.80054 41.4658 5.96808 41.4658 6.17554V7.67627C41.4658 7.88373 41.2983 8.05127 41.0908 8.05127ZM18.2158 7.30127H40.7158V6.55054H18.2158V7.30127Z" fill="#666666"/>
<path d="M18.2158 19.6831C18.0084 19.6831 17.8408 19.5156 17.8408 19.3081V7.74316C17.8408 7.53571 18.0084 7.36816 18.2158 7.36816C18.4233 7.36816 18.5908 7.53571 18.5908 7.74316V19.3081C18.5908 19.5156 18.4233 19.6831 18.2158 19.6831Z" fill="#666666"/>
<path d="M19.3408 19.6831C19.1334 19.6831 18.9658 19.5156 18.9658 19.3081V7.74316C18.9658 7.53571 19.1334 7.36816 19.3408 7.36816C19.5483 7.36816 19.7158 7.53571 19.7158 7.74316V19.3081C19.7158 19.5156 19.5483 19.6831 19.3408 19.6831Z" fill="#666666"/>
<path d="M39.5908 19.6831C39.3834 19.6831 39.2158 19.5156 39.2158 19.3081V7.74316C39.2158 7.53571 39.3834 7.36816 39.5908 7.36816C39.7983 7.36816 39.9658 7.53571 39.9658 7.74316V19.3081C39.9658 19.5156 39.7983 19.6831 39.5908 19.6831Z" fill="#666666"/>
<path d="M40.7158 19.6831C40.5084 19.6831 40.3408 19.5156 40.3408 19.3081V7.74316C40.3408 7.53571 40.5084 7.36816 40.7158 7.36816C40.9233 7.36816 41.0908 7.53571 41.0908 7.74316V19.3081C41.0908 19.5156 40.9233 19.6831 40.7158 19.6831Z" fill="#666666"/>
<path d="M19.3408 19.6831H18.2158C18.0084 19.6831 17.8408 19.5156 17.8408 19.3081C17.8408 19.1006 18.0084 18.9331 18.2158 18.9331H19.3408C19.5483 18.9331 19.7158 19.1006 19.7158 19.3081C19.7158 19.5156 19.5483 19.6831 19.3408 19.6831Z" fill="#666666"/>
<path d="M40.7158 19.6831H39.5908C39.3834 19.6831 39.2158 19.5156 39.2158 19.3081C39.2158 19.1006 39.3834 18.9331 39.5908 18.9331H40.7158C40.9233 18.9331 41.0908 19.1006 41.0908 19.3081C41.0908 19.5156 40.9233 19.6831 40.7158 19.6831Z" fill="#666666"/>
<path d="M39.5908 13.3059H19.3408C19.1334 13.3059 18.9658 13.1382 18.9658 12.9309C18.9658 12.7234 19.1334 12.5559 19.3408 12.5559H39.5908C39.7983 12.5559 39.9658 12.7234 39.9658 12.9309C39.9658 13.1382 39.7983 13.3059 39.5908 13.3059Z" fill="#666666"/>
<path d="M39.5908 14.4316H19.3408C19.1334 14.4316 18.9658 14.2639 18.9658 14.0566C18.9658 13.8492 19.1334 13.6816 19.3408 13.6816H39.5908C39.7983 13.6816 39.9658 13.8492 39.9658 14.0566C39.9658 14.2639 39.7983 14.4316 39.5908 14.4316Z" fill="#666666"/>
<path d="M20.8398 13.3066C20.6324 13.3066 20.4648 13.1389 20.4648 12.9316C20.4648 11.8976 21.3057 11.0566 22.3395 11.0566C22.5468 11.0566 22.7145 11.2242 22.7145 11.4316C22.7145 11.6389 22.5468 11.8066 22.3395 11.8066C21.7197 11.8066 21.2148 12.3113 21.2148 12.9316C21.2148 13.1389 21.0471 13.3066 20.8398 13.3066Z" fill="#666666"/>
<path d="M24.5905 13.3066C24.383 13.3066 24.2155 13.1389 24.2155 12.9316C24.2155 12.3113 23.7106 11.8066 23.0908 11.8066C22.8835 11.8066 22.7158 11.6389 22.7158 11.4316C22.7158 11.2242 22.8835 11.0566 23.0908 11.0566C24.1246 11.0566 24.9655 11.8976 24.9655 12.9316C24.9655 13.1389 24.7979 13.3066 24.5905 13.3066Z" fill="#666666"/>
<path d="M21.2148 12.3148C21.0074 12.3148 20.8398 12.147 20.8398 11.9398V9.93164C20.8398 9.72418 21.0074 9.55664 21.2148 9.55664C21.4221 9.55664 21.5898 9.72418 21.5898 9.93164V11.9398C21.5898 12.147 21.4221 12.3148 21.2148 12.3148Z" fill="#666666"/>
<path d="M24.2148 12.3148C24.0074 12.3148 23.8398 12.147 23.8398 11.9398V9.93164C23.8398 9.72418 24.0074 9.55664 24.2148 9.55664C24.4221 9.55664 24.5898 9.72418 24.5898 9.93164V11.9398C24.5898 12.147 24.4221 12.3148 24.2148 12.3148Z" fill="#666666"/>
<path d="M21.9658 10.6824C21.7584 10.6824 21.5908 10.5146 21.5908 10.3074V9.18164C21.5908 8.97418 21.7584 8.80664 21.9658 8.80664C22.1733 8.80664 22.3408 8.97418 22.3408 9.18164V10.3074C22.3408 10.5146 22.1733 10.6824 21.9658 10.6824Z" fill="#666666"/>
<path d="M23.4658 9.55664H21.9658C21.7584 9.55664 21.5908 9.38892 21.5908 9.18164C21.5908 8.97418 21.7584 8.80664 21.9658 8.80664H23.4658C23.6733 8.80664 23.8408 8.97418 23.8408 9.18164C23.8408 9.38892 23.6733 9.55664 23.4658 9.55664Z" fill="#666666"/>
<path d="M23.4658 10.6824C23.2584 10.6824 23.0908 10.5146 23.0908 10.3074V9.18164C23.0908 8.97418 23.2584 8.80664 23.4658 8.80664C23.6733 8.80664 23.8408 8.97418 23.8408 9.18164V10.3074C23.8408 10.5146 23.6733 10.6824 23.4658 10.6824Z" fill="#666666"/>
<path d="M21.9656 10.3066H21.2148C21.0074 10.3066 20.8398 10.1389 20.8398 9.93164C20.8398 9.72418 21.0074 9.55664 21.2148 9.55664H21.9656C22.173 9.55664 22.3406 9.72418 22.3406 9.93164C22.3406 10.1389 22.173 10.3066 21.9656 10.3066Z" fill="#666666"/>
<path d="M24.2144 10.3066H23.4658C23.2584 10.3066 23.0908 10.1389 23.0908 9.93164C23.0908 9.72418 23.2584 9.55664 23.4658 9.55664H24.2144C24.4216 9.55664 24.5894 9.72418 24.5894 9.93164C24.5894 10.1389 24.4216 10.3066 24.2144 10.3066Z" fill="#666666"/>
<path d="M23.0913 11.8066H22.3398C22.1324 11.8066 21.9648 11.6389 21.9648 11.4316C21.9648 11.2242 22.1324 11.0566 22.3398 11.0566H23.0913C23.2988 11.0566 23.4663 11.2242 23.4663 11.4316C23.4663 11.6389 23.2988 11.8066 23.0913 11.8066Z" fill="#666666"/>
<path d="M25.7148 13.3066C25.5074 13.3066 25.3398 13.1389 25.3398 12.9316C25.3398 11.8976 26.1807 11.0566 27.2145 11.0566C27.4218 11.0566 27.5895 11.2242 27.5895 11.4316C27.5895 11.6389 27.4218 11.8066 27.2145 11.8066C26.5947 11.8066 26.0898 12.3113 26.0898 12.9316C26.0898 13.1389 25.9221 13.3066 25.7148 13.3066Z" fill="#666666"/>
<path d="M29.4655 13.3066C29.258 13.3066 29.0905 13.1389 29.0905 12.9316C29.0905 12.3113 28.5856 11.8066 27.9658 11.8066C27.7585 11.8066 27.5908 11.6389 27.5908 11.4316C27.5908 11.2242 27.7585 11.0566 27.9658 11.0566C28.9996 11.0566 29.8405 11.8976 29.8405 12.9316C29.8405 13.1389 29.6729 13.3066 29.4655 13.3066Z" fill="#666666"/>
<path d="M26.0898 12.3148C25.8824 12.3148 25.7148 12.147 25.7148 11.9398V9.93164C25.7148 9.72418 25.8824 9.55664 26.0898 9.55664C26.2971 9.55664 26.4648 9.72418 26.4648 9.93164V11.9398C26.4648 12.147 26.2971 12.3148 26.0898 12.3148Z" fill="#666666"/>
<path d="M29.0898 12.3148C28.8824 12.3148 28.7148 12.147 28.7148 11.9398V9.93164C28.7148 9.72418 28.8824 9.55664 29.0898 9.55664C29.2971 9.55664 29.4648 9.72418 29.4648 9.93164V11.9398C29.4648 12.147 29.2971 12.3148 29.0898 12.3148Z" fill="#666666"/>
<path d="M26.8408 10.6824C26.6334 10.6824 26.4658 10.5146 26.4658 10.3074V9.18164C26.4658 8.97418 26.6334 8.80664 26.8408 8.80664C27.0483 8.80664 27.2158 8.97418 27.2158 9.18164V10.3074C27.2158 10.5146 27.0483 10.6824 26.8408 10.6824Z" fill="#666666"/>
<path d="M28.3408 9.55664H26.8408C26.6334 9.55664 26.4658 9.38892 26.4658 9.18164C26.4658 8.97418 26.6334 8.80664 26.8408 8.80664H28.3408C28.5483 8.80664 28.7158 8.97418 28.7158 9.18164C28.7158 9.38892 28.5483 9.55664 28.3408 9.55664Z" fill="#666666"/>
<path d="M28.3408 10.6824C28.1334 10.6824 27.9658 10.5146 27.9658 10.3074V9.18164C27.9658 8.97418 28.1334 8.80664 28.3408 8.80664C28.5483 8.80664 28.7158 8.97418 28.7158 9.18164V10.3074C28.7158 10.5146 28.5483 10.6824 28.3408 10.6824Z" fill="#666666"/>
<path d="M26.8406 10.3066H26.0898C25.8824 10.3066 25.7148 10.1389 25.7148 9.93164C25.7148 9.72418 25.8824 9.55664 26.0898 9.55664H26.8406C27.048 9.55664 27.2156 9.72418 27.2156 9.93164C27.2156 10.1389 27.048 10.3066 26.8406 10.3066Z" fill="#666666"/>
<path d="M29.0894 10.3066H28.3408C28.1334 10.3066 27.9658 10.1389 27.9658 9.93164C27.9658 9.72418 28.1334 9.55664 28.3408 9.55664H29.0894C29.2966 9.55664 29.4644 9.72418 29.4644 9.93164C29.4644 10.1389 29.2966 10.3066 29.0894 10.3066Z" fill="#666666"/>
<path d="M27.9663 11.8066H27.2148C27.0074 11.8066 26.8398 11.6389 26.8398 11.4316C26.8398 11.2242 27.0074 11.0566 27.2148 11.0566H27.9663C28.1738 11.0566 28.3413 11.2242 28.3413 11.4316C28.3413 11.6389 28.1738 11.8066 27.9663 11.8066Z" fill="#666666"/>
<path d="M29.4736 18.9324C29.2662 18.9324 29.0986 18.7646 29.0986 18.5574C29.0986 17.9366 29.6038 17.4316 30.2244 17.4316C30.4318 17.4316 30.5994 17.5992 30.5994 17.8066C30.5994 18.0139 30.4318 18.1816 30.2244 18.1816C30.0171 18.1816 29.8486 18.3499 29.8486 18.5574C29.8486 18.7646 29.6807 18.9324 29.4736 18.9324Z" fill="#666666"/>
<path d="M33.2246 18.9324C33.0173 18.9324 32.8496 18.7646 32.8496 18.5574C32.8496 18.3503 32.6817 18.1824 32.4746 18.1824C32.2673 18.1824 32.0996 18.0146 32.0996 17.8074C32.0996 17.5999 32.2673 17.4324 32.4746 17.4324C33.095 17.4324 33.5996 17.937 33.5996 18.5574C33.5996 18.7646 33.4321 18.9324 33.2246 18.9324Z" fill="#666666"/>
<path d="M33.2247 19.6831H29.4736C29.2662 19.6831 29.0986 19.5156 29.0986 19.3081C29.0986 19.1006 29.2662 18.9331 29.4736 18.9331H33.2251C33.4326 18.9331 33.6001 19.1006 33.6001 19.3081C33.6001 19.5156 33.4322 19.6831 33.2247 19.6831Z" fill="#666666"/>
<path d="M32.5051 18.1816H30.1943C29.9871 18.1816 29.8193 18.0139 29.8193 17.8066C29.8193 17.5992 29.9871 17.4316 30.1943 17.4316H32.5051C32.7126 17.4316 32.8801 17.5992 32.8801 17.8066C32.8801 18.0139 32.7126 18.1816 32.5051 18.1816Z" fill="#666666"/>
<path d="M30.2236 18.1816C30.0162 18.1816 29.8486 18.0139 29.8486 17.8066V15.5574C29.8486 15.3499 30.0162 15.1824 30.2236 15.1824C30.4311 15.1824 30.5986 15.3499 30.5986 15.5574V17.8066C30.5986 18.0139 30.4311 18.1816 30.2236 18.1816Z" fill="#666666"/>
<path d="M32.4756 18.1824C32.2683 18.1824 32.1006 18.0146 32.1006 17.8074V15.5574C32.1006 15.3499 32.2683 15.1824 32.4756 15.1824C32.683 15.1824 32.8506 15.3499 32.8506 15.5574V17.8074C32.8506 18.0146 32.683 18.1824 32.4756 18.1824Z" fill="#666666"/>
<path d="M29.4736 19.6831C29.2662 19.6831 29.0986 19.5156 29.0986 19.3081V18.5574C29.0986 18.3499 29.2662 18.1824 29.4736 18.1824C29.6811 18.1824 29.8486 18.3499 29.8486 18.5574V19.3081C29.8486 19.5156 29.6807 19.6831 29.4736 19.6831Z" fill="#666666"/>
<path d="M33.2246 19.6831C33.0173 19.6831 32.8496 19.5156 32.8496 19.3081V18.5574C32.8496 18.3499 33.0173 18.1824 33.2246 18.1824C33.4321 18.1824 33.5996 18.3499 33.5996 18.5574V19.3081C33.5996 19.5156 33.4321 19.6831 33.2246 19.6831Z" fill="#666666"/>
<path d="M32.4751 15.9324H30.2236C30.0162 15.9324 29.8486 15.7646 29.8486 15.5574C29.8486 15.3499 30.0162 15.1824 30.2236 15.1824H32.4751C32.6826 15.1824 32.8501 15.3499 32.8501 15.5574C32.8501 15.7646 32.6826 15.9324 32.4751 15.9324Z" fill="#666666"/>
<path d="M32.8497 17.0574H29.8486C29.6412 17.0574 29.4736 16.8896 29.4736 16.6824C29.4736 16.4749 29.6412 16.3074 29.8486 16.3074H32.8497C33.0572 16.3074 33.2247 16.4749 33.2247 16.6824C33.2247 16.8896 33.0572 17.0574 32.8497 17.0574Z" fill="#666666"/>
<path d="M34.3486 18.9324C34.1412 18.9324 33.9736 18.7646 33.9736 18.5574C33.9736 17.9366 34.4788 17.4316 35.0994 17.4316C35.3068 17.4316 35.4744 17.5992 35.4744 17.8066C35.4744 18.0139 35.3068 18.1816 35.0994 18.1816C34.8921 18.1816 34.7236 18.3499 34.7236 18.5574C34.7236 18.7646 34.5557 18.9324 34.3486 18.9324Z" fill="#666666"/>
<path d="M38.0996 18.9324C37.8923 18.9324 37.7246 18.7646 37.7246 18.5574C37.7246 18.3503 37.5567 18.1824 37.3496 18.1824C37.1423 18.1824 36.9746 18.0146 36.9746 17.8074C36.9746 17.5999 37.1423 17.4324 37.3496 17.4324C37.97 17.4324 38.4746 17.937 38.4746 18.5574C38.4746 18.7646 38.3071 18.9324 38.0996 18.9324Z" fill="#666666"/>
<path d="M38.0997 19.6831H34.3486C34.1412 19.6831 33.9736 19.5156 33.9736 19.3081C33.9736 19.1006 34.1412 18.9331 34.3486 18.9331H38.1001C38.3076 18.9331 38.4751 19.1006 38.4751 19.3081C38.4751 19.5156 38.3072 19.6831 38.0997 19.6831Z" fill="#666666"/>
<path d="M37.3801 18.1816H35.0693C34.8621 18.1816 34.6943 18.0139 34.6943 17.8066C34.6943 17.5992 34.8621 17.4316 35.0693 17.4316H37.3801C37.5876 17.4316 37.7551 17.5992 37.7551 17.8066C37.7551 18.0139 37.5876 18.1816 37.3801 18.1816Z" fill="#666666"/>
<path d="M35.0986 18.1816C34.8912 18.1816 34.7236 18.0139 34.7236 17.8066V15.5574C34.7236 15.3499 34.8912 15.1824 35.0986 15.1824C35.3061 15.1824 35.4736 15.3499 35.4736 15.5574V17.8066C35.4736 18.0139 35.3061 18.1816 35.0986 18.1816Z" fill="#666666"/>
<path d="M37.3506 18.1824C37.1433 18.1824 36.9756 18.0146 36.9756 17.8074V15.5574C36.9756 15.3499 37.1433 15.1824 37.3506 15.1824C37.558 15.1824 37.7256 15.3499 37.7256 15.5574V17.8074C37.7256 18.0146 37.558 18.1824 37.3506 18.1824Z" fill="#666666"/>
<path d="M34.3486 19.6831C34.1412 19.6831 33.9736 19.5156 33.9736 19.3081V18.5574C33.9736 18.3499 34.1412 18.1824 34.3486 18.1824C34.5561 18.1824 34.7236 18.3499 34.7236 18.5574V19.3081C34.7236 19.5156 34.5557 19.6831 34.3486 19.6831Z" fill="#666666"/>
<path d="M38.0996 19.6831C37.8923 19.6831 37.7246 19.5156 37.7246 19.3081V18.5574C37.7246 18.3499 37.8923 18.1824 38.0996 18.1824C38.3071 18.1824 38.4746 18.3499 38.4746 18.5574V19.3081C38.4746 19.5156 38.3071 19.6831 38.0996 19.6831Z" fill="#666666"/>
<path d="M37.3501 15.9324H35.0986C34.8912 15.9324 34.7236 15.7646 34.7236 15.5574C34.7236 15.3499 34.8912 15.1824 35.0986 15.1824H37.3501C37.5576 15.1824 37.7251 15.3499 37.7251 15.5574C37.7251 15.7646 37.5576 15.9324 37.3501 15.9324Z" fill="#666666"/>
<path d="M37.7247 17.0574H34.7236C34.5162 17.0574 34.3486 16.8896 34.3486 16.6824C34.3486 16.4749 34.5162 16.3074 34.7236 16.3074H37.7247C37.9322 16.3074 38.0997 16.4749 38.0997 16.6824C38.0997 16.8896 37.9322 17.0574 37.7247 17.0574Z" fill="#666666"/>
</g>
<defs>
<clipPath id="clip0_26558_261">
<rect width="24" height="24" fill="white" transform="translate(17.4658 0.738037)"/>
</clipPath>
</defs>
</svg>
