<svg width="59" height="60" viewBox="0 0 59 60" fill="none" xmlns="http://www.w3.org/2000/svg">
<path d="M1.60182 54.7522V43.5522H3.29782V48.3522L7.71382 43.5522H9.80982L5.66582 48.0162L9.90582 54.7522H7.84182L4.44982 49.3122L3.29782 50.5602V54.7522H1.60182ZM12.2791 45.3122C11.9591 45.3122 11.6924 45.2162 11.4791 45.0242C11.2764 44.8215 11.1751 44.5709 11.1751 44.2722C11.1751 43.9735 11.2764 43.7282 11.4791 43.5362C11.6924 43.3335 11.9591 43.2322 12.2791 43.2322C12.5991 43.2322 12.8604 43.3335 13.0631 43.5362C13.2764 43.7282 13.3831 43.9735 13.3831 44.2722C13.3831 44.5709 13.2764 44.8215 13.0631 45.0242C12.8604 45.2162 12.5991 45.3122 12.2791 45.3122ZM11.4311 54.7522V46.8162H13.1271V54.7522H11.4311ZM18.6939 54.7522C17.9153 54.7522 17.2966 54.5655 16.8379 54.1922C16.3793 53.8082 16.1499 53.1309 16.1499 52.1602V48.2402H14.7899V46.8162H16.1499L16.3579 44.8002H17.8459V46.8162H20.0859V48.2402H17.8459V52.1602C17.8459 52.5975 17.9366 52.9015 18.1179 53.0722C18.3099 53.2322 18.6353 53.3122 19.0939 53.3122H20.0059V54.7522H18.6939ZM25.3916 54.9442C24.6129 54.9442 23.9142 54.7682 23.2956 54.4162C22.6876 54.0642 22.2076 53.5789 21.8556 52.9602C21.5142 52.3309 21.3436 51.6055 21.3436 50.7842C21.3436 49.9629 21.5142 49.2429 21.8556 48.6242C22.2076 47.9949 22.6876 47.5042 23.2956 47.1522C23.9142 46.8002 24.6129 46.6242 25.3916 46.6242C26.3729 46.6242 27.1942 46.8802 27.8556 47.3922C28.5276 47.9042 28.9596 48.5975 29.1516 49.4722H27.3756C27.2689 49.0349 27.0342 48.6935 26.6716 48.4482C26.3089 48.2029 25.8822 48.0802 25.3916 48.0802C24.9756 48.0802 24.5916 48.1869 24.2396 48.4002C23.8876 48.6029 23.6049 48.9069 23.3916 49.3122C23.1782 49.7069 23.0716 50.1975 23.0716 50.7842C23.0716 51.3709 23.1782 51.8669 23.3916 52.2722C23.6049 52.6669 23.8876 52.9709 24.2396 53.1842C24.5916 53.3975 24.9756 53.5042 25.3916 53.5042C25.8822 53.5042 26.3089 53.3815 26.6716 53.1362C27.0342 52.8909 27.2689 52.5442 27.3756 52.0962H29.1516C28.9702 52.9495 28.5436 53.6375 27.8716 54.1602C27.1996 54.6829 26.3729 54.9442 25.3916 54.9442ZM30.9909 54.7522V43.2322H32.6869V48.0962C32.9536 47.6375 33.3216 47.2802 33.7909 47.0242C34.2709 46.7575 34.7989 46.6242 35.3749 46.6242C36.3243 46.6242 37.0709 46.9229 37.6149 47.5202C38.1589 48.1175 38.4309 49.0082 38.4309 50.1922V54.7522H36.7509V50.3682C36.7509 48.8322 36.1376 48.0642 34.9109 48.0642C34.2709 48.0642 33.7376 48.2882 33.3109 48.7362C32.8949 49.1842 32.6869 49.8242 32.6869 50.6562V54.7522H30.9909ZM44.1404 54.9442C43.3618 54.9442 42.6684 54.7735 42.0604 54.4322C41.4631 54.0802 40.9938 53.5949 40.6524 52.9762C40.3111 52.3575 40.1404 51.6375 40.1404 50.8162C40.1404 49.9842 40.3058 49.2535 40.6364 48.6242C40.9778 47.9949 41.4471 47.5042 42.0444 47.1522C42.6524 46.8002 43.3564 46.6242 44.1564 46.6242C44.9351 46.6242 45.6124 46.8002 46.1884 47.1522C46.7644 47.4935 47.2124 47.9522 47.5324 48.5282C47.8524 49.1042 48.0124 49.7389 48.0124 50.4322C48.0124 50.5389 48.0071 50.6562 47.9964 50.7842C47.9964 50.9015 47.9911 51.0349 47.9804 51.1842H41.8044C41.8578 51.9522 42.1084 52.5389 42.5564 52.9442C43.0151 53.3389 43.5431 53.5362 44.1404 53.5362C44.6204 53.5362 45.0204 53.4295 45.3404 53.2162C45.6711 52.9922 45.9164 52.6935 46.0764 52.3202H47.7724C47.5591 53.0669 47.1324 53.6909 46.4924 54.1922C45.8631 54.6935 45.0791 54.9442 44.1404 54.9442ZM44.1404 48.0162C43.5751 48.0162 43.0738 48.1869 42.6364 48.5282C42.1991 48.8589 41.9324 49.3602 41.8364 50.0322H46.3164C46.2844 49.4135 46.0658 48.9229 45.6604 48.5602C45.2551 48.1975 44.7484 48.0162 44.1404 48.0162ZM49.7722 54.7522V46.8162H51.2762L51.4042 48.2082C51.6495 47.7175 52.0069 47.3335 52.4762 47.0562C52.9562 46.7682 53.5055 46.6242 54.1242 46.6242C55.0842 46.6242 55.8362 46.9229 56.3802 47.5202C56.9349 48.1175 57.2122 49.0082 57.2122 50.1922V54.7522H55.5322V50.3682C55.5322 48.8322 54.9029 48.0642 53.6442 48.0642C53.0149 48.0642 52.4922 48.2882 52.0762 48.7362C51.6709 49.1842 51.4682 49.8242 51.4682 50.6562V54.7522H49.7722Z" fill="#808080"/>
<g clip-path="url(#clip0_26558_214)">
<path d="M17.4717 24.7522H27.3577V19.083H17.4717V24.7522ZM19.6338 20.5511H25.2423V21.9567H19.6338V20.5511Z" fill="#666666"/>
<path d="M17.4717 17.6774H27.3577V12.1019H17.4717V17.6774ZM19.6338 13.5975H25.2423V15.0031H19.6338V13.5975Z" fill="#666666"/>
<path d="M28.7637 24.7522H41.4608V12.1019H28.7637V24.7522ZM37.1972 13.5975H38.6028V15.0378H37.1972V13.5975ZM34.386 13.5975H35.7916V15.0378H34.386V13.5975ZM31.5749 13.5975H32.9805V15.0378H31.5749V13.5975ZM31.5749 16.2953H38.6028V21.9411H31.5749V16.2953Z" fill="#666666"/>
<path d="M37.1972 3.99271V0.752197H32.9805V3.99506L28.7637 6.8062V9.29071H41.4608V6.80385L37.1972 3.99271Z" fill="#666666"/>
</g>
<defs>
<clipPath id="clip0_26558_214">
<rect width="24" height="24" fill="white" transform="translate(17.4658 0.752197)"/>
</clipPath>
</defs>
</svg>
