<svg width="92" height="60" viewBox="0 0 92 60" fill="none" xmlns="http://www.w3.org/2000/svg">
<path d="M2.10182 54.7522V43.5522H3.79782V53.4082H8.88582V54.7522H2.10182ZM11.6072 45.3122C11.2872 45.3122 11.0205 45.2162 10.8072 45.0242C10.6045 44.8215 10.5032 44.5709 10.5032 44.2722C10.5032 43.9735 10.6045 43.7282 10.8072 43.5362C11.0205 43.3335 11.2872 43.2322 11.6072 43.2322C11.9272 43.2322 12.1885 43.3335 12.3912 43.5362C12.6045 43.7282 12.7112 43.9735 12.7112 44.2722C12.7112 44.5709 12.6045 44.8215 12.3912 45.0242C12.1885 45.2162 11.9272 45.3122 11.6072 45.3122ZM10.7592 54.7522V46.8162H12.4552V54.7522H10.7592ZM16.9181 54.7522L13.9421 46.8162H15.7181L17.9261 53.1362L20.1341 46.8162H21.8941L18.9341 54.7522H16.9181ZM24.2478 45.3122C23.9278 45.3122 23.6612 45.2162 23.4478 45.0242C23.2452 44.8215 23.1438 44.5709 23.1438 44.2722C23.1438 43.9735 23.2452 43.7282 23.4478 43.5362C23.6612 43.3335 23.9278 43.2322 24.2478 43.2322C24.5678 43.2322 24.8292 43.3335 25.0318 43.5362C25.2452 43.7282 25.3518 43.9735 25.3518 44.2722C25.3518 44.5709 25.2452 44.8215 25.0318 45.0242C24.8292 45.2162 24.5678 45.3122 24.2478 45.3122ZM23.3998 54.7522V46.8162H25.0958V54.7522H23.3998ZM27.3347 54.7522V46.8162H28.8387L28.9667 48.2082C29.212 47.7175 29.5694 47.3335 30.0387 47.0562C30.5187 46.7682 31.068 46.6242 31.6867 46.6242C32.6467 46.6242 33.3987 46.9229 33.9427 47.5202C34.4974 48.1175 34.7747 49.0082 34.7747 50.1922V54.7522H33.0947V50.3682C33.0947 48.8322 32.4654 48.0642 31.2067 48.0642C30.5774 48.0642 30.0547 48.2882 29.6387 48.7362C29.2334 49.1842 29.0307 49.8242 29.0307 50.6562V54.7522H27.3347ZM40.0202 52.3202C39.6042 52.3202 39.2202 52.2722 38.8682 52.1762L38.1802 52.8482C38.2975 52.9229 38.4415 52.9869 38.6122 53.0402C38.7829 53.0935 39.0229 53.1415 39.3322 53.1842C39.6415 53.2269 40.0629 53.2695 40.5962 53.3122C41.6522 53.4082 42.4149 53.6642 42.8842 54.0802C43.3535 54.4855 43.5882 55.0295 43.5882 55.7122C43.5882 56.1815 43.4602 56.6242 43.2042 57.0402C42.9589 57.4669 42.5695 57.8082 42.0362 58.0642C41.5135 58.3309 40.8415 58.4642 40.0202 58.4642C38.9109 58.4642 38.0095 58.2509 37.3162 57.8242C36.6335 57.4082 36.2922 56.7735 36.2922 55.9202C36.2922 55.5895 36.3775 55.2589 36.5482 54.9282C36.7295 54.6082 37.0122 54.3042 37.3962 54.0162C37.1722 53.9202 36.9749 53.8189 36.8042 53.7122C36.6442 53.5949 36.5002 53.4775 36.3722 53.3602V52.9762L37.7482 51.5682C37.1295 51.0349 36.8202 50.3362 36.8202 49.4722C36.8202 48.9495 36.9429 48.4749 37.1882 48.0482C37.4442 47.6109 37.8122 47.2642 38.2922 47.0082C38.7722 46.7522 39.3482 46.6242 40.0202 46.6242C40.4682 46.6242 40.8842 46.6882 41.2682 46.8162H44.2282V47.9362L42.8202 48.0162C43.0762 48.4535 43.2042 48.9389 43.2042 49.4722C43.2042 50.0055 43.0762 50.4855 42.8202 50.9122C42.5749 51.3389 42.2122 51.6802 41.7322 51.9362C41.2629 52.1922 40.6922 52.3202 40.0202 52.3202ZM40.0202 50.9922C40.5109 50.9922 40.9055 50.8642 41.2042 50.6082C41.5135 50.3415 41.6682 49.9682 41.6682 49.4882C41.6682 48.9975 41.5135 48.6242 41.2042 48.3682C40.9055 48.1122 40.5109 47.9842 40.0202 47.9842C39.5189 47.9842 39.1135 48.1122 38.8042 48.3682C38.5055 48.6242 38.3562 48.9975 38.3562 49.4882C38.3562 49.9682 38.5055 50.3415 38.8042 50.6082C39.1135 50.8642 39.5189 50.9922 40.0202 50.9922ZM37.8922 55.7602C37.8922 56.2189 38.0949 56.5602 38.5002 56.7842C38.9055 57.0189 39.4122 57.1362 40.0202 57.1362C40.6069 57.1362 41.0815 57.0082 41.4442 56.7522C41.8069 56.5069 41.9882 56.1762 41.9882 55.7602C41.9882 55.4509 41.8655 55.1842 41.6202 54.9602C41.3749 54.7469 40.9109 54.6135 40.2282 54.5602C39.7162 54.5282 39.2629 54.4802 38.8682 54.4162C38.4949 54.6189 38.2389 54.8375 38.1002 55.0722C37.9615 55.3069 37.8922 55.5362 37.8922 55.7602ZM49.8362 54.7522V43.5522H53.6922C54.5775 43.5522 55.3029 43.7015 55.8682 44.0002C56.4442 44.2989 56.8709 44.7042 57.1482 45.2162C57.4255 45.7175 57.5642 46.2775 57.5642 46.8962C57.5642 47.5895 57.3775 48.2189 57.0042 48.7842C56.6415 49.3495 56.0709 49.7549 55.2922 50.0002L57.6762 54.7522H55.7082L53.5322 50.2402H51.5322V54.7522H49.8362ZM51.5322 48.9602H53.5962C54.3642 48.9602 54.9242 48.7735 55.2762 48.4002C55.6389 48.0269 55.8202 47.5415 55.8202 46.9442C55.8202 46.3469 55.6442 45.8722 55.2922 45.5202C54.9402 45.1575 54.3695 44.9762 53.5802 44.9762H51.5322V48.9602ZM62.7342 54.9442C61.9769 54.9442 61.2942 54.7735 60.6862 54.4322C60.0889 54.0802 59.6142 53.5949 59.2622 52.9762C58.9102 52.3469 58.7342 51.6162 58.7342 50.7842C58.7342 49.9522 58.9102 49.2269 59.2622 48.6082C59.6249 47.9789 60.1102 47.4935 60.7182 47.1522C61.3262 46.8002 62.0035 46.6242 62.7502 46.6242C63.5075 46.6242 64.1849 46.8002 64.7822 47.1522C65.3902 47.4935 65.8702 47.9789 66.2222 48.6082C66.5849 49.2269 66.7662 49.9522 66.7662 50.7842C66.7662 51.6162 66.5849 52.3469 66.2222 52.9762C65.8702 53.5949 65.3902 54.0802 64.7822 54.4322C64.1742 54.7735 63.4915 54.9442 62.7342 54.9442ZM62.7342 53.4882C63.1395 53.4882 63.5129 53.3869 63.8542 53.1842C64.2062 52.9815 64.4889 52.6829 64.7022 52.2882C64.9155 51.8829 65.0222 51.3815 65.0222 50.7842C65.0222 50.1869 64.9155 49.6909 64.7022 49.2962C64.4995 48.8909 64.2222 48.5869 63.8702 48.3842C63.5289 48.1815 63.1555 48.0802 62.7502 48.0802C62.3449 48.0802 61.9662 48.1815 61.6142 48.3842C61.2729 48.5869 60.9955 48.8909 60.7822 49.2962C60.5689 49.6909 60.4622 50.1869 60.4622 50.7842C60.4622 51.3815 60.5689 51.8829 60.7822 52.2882C60.9955 52.6829 61.2729 52.9815 61.6142 53.1842C61.9555 53.3869 62.3289 53.4882 62.7342 53.4882ZM72.3123 54.9442C71.555 54.9442 70.8723 54.7735 70.2643 54.4322C69.667 54.0802 69.1923 53.5949 68.8403 52.9762C68.4883 52.3469 68.3123 51.6162 68.3123 50.7842C68.3123 49.9522 68.4883 49.2269 68.8403 48.6082C69.203 47.9789 69.6883 47.4935 70.2963 47.1522C70.9043 46.8002 71.5817 46.6242 72.3283 46.6242C73.0857 46.6242 73.763 46.8002 74.3603 47.1522C74.9683 47.4935 75.4483 47.9789 75.8003 48.6082C76.163 49.2269 76.3443 49.9522 76.3443 50.7842C76.3443 51.6162 76.163 52.3469 75.8003 52.9762C75.4483 53.5949 74.9683 54.0802 74.3603 54.4322C73.7523 54.7735 73.0697 54.9442 72.3123 54.9442ZM72.3123 53.4882C72.7177 53.4882 73.091 53.3869 73.4323 53.1842C73.7843 52.9815 74.067 52.6829 74.2803 52.2882C74.4937 51.8829 74.6003 51.3815 74.6003 50.7842C74.6003 50.1869 74.4937 49.6909 74.2803 49.2962C74.0777 48.8909 73.8003 48.5869 73.4483 48.3842C73.107 48.1815 72.7337 48.0802 72.3283 48.0802C71.923 48.0802 71.5443 48.1815 71.1923 48.3842C70.851 48.5869 70.5737 48.8909 70.3603 49.2962C70.147 49.6909 70.0403 50.1869 70.0403 50.7842C70.0403 51.3815 70.147 51.8829 70.3603 52.2882C70.5737 52.6829 70.851 52.9815 71.1923 53.1842C71.5337 53.3869 71.907 53.4882 72.3123 53.4882ZM78.1784 54.7522V46.8162H79.6824L79.8264 47.9362C80.0824 47.5309 80.4184 47.2109 80.8344 46.9762C81.2611 46.7415 81.7518 46.6242 82.3064 46.6242C83.5651 46.6242 84.4398 47.1202 84.9304 48.1122C85.2184 47.6535 85.6024 47.2909 86.0824 47.0242C86.5731 46.7575 87.1011 46.6242 87.6664 46.6242C88.6584 46.6242 89.4371 46.9229 90.0024 47.5202C90.5678 48.1175 90.8504 49.0082 90.8504 50.1922V54.7522H89.1544V50.3682C89.1544 48.8322 88.5678 48.0642 87.3944 48.0642C86.7971 48.0642 86.3064 48.2882 85.9224 48.7362C85.5491 49.1842 85.3624 49.8242 85.3624 50.6562V54.7522H83.6664V50.3682C83.6664 48.8322 83.0744 48.0642 81.8904 48.0642C81.3038 48.0642 80.8184 48.2882 80.4344 48.7362C80.0611 49.1842 79.8744 49.8242 79.8744 50.6562V54.7522H78.1784Z" fill="#808080"/>
<g clip-path="url(#clip0_26558_203)">
<path d="M38.9189 12.0491H45.0596C45.5994 12.0491 46.0923 12.2532 46.4658 12.5879C46.8393 12.2531 47.3322 12.0491 47.8721 12.0491H54.0127V4.50853C54.0127 4.12204 53.7035 3.80043 53.317 3.79907C53.3112 3.79907 53.5569 3.79907 39.6221 3.79907C39.2219 3.79907 38.9189 4.1271 38.9189 4.50853V12.0491Z" fill="#666666"/>
<path d="M47.1689 14.1584V15.7991H54.0127C54.0127 14.7605 54.0127 14.5472 54.0127 13.4553H47.8721C47.4844 13.4553 47.1689 13.7707 47.1689 14.1584Z" fill="#666666"/>
<path d="M56.193 8.67518C55.7596 8.68868 55.4189 9.05224 55.4189 9.48583C55.4189 9.59711 55.4189 16.9016 55.4189 16.5022C55.4189 16.8905 55.1041 17.2053 54.7158 17.2053C54.1537 17.2053 37.6821 17.2053 38.2158 17.2053C37.8275 17.2053 37.5127 16.8905 37.5127 16.5022C37.5127 16.2428 37.5127 9.41819 37.5127 9.48583C37.5127 9.05224 37.1721 8.68868 36.7386 8.67518C35.4894 8.63627 34.4658 9.63564 34.4658 10.8772V18.096C34.4658 19.261 35.4102 20.2053 36.5752 20.2053H37.5127V20.9823C37.5127 21.361 37.8036 21.6867 38.1818 21.7046C38.5856 21.7236 38.9189 21.4018 38.9189 21.0022V20.2053H54.0127V20.9823C54.0127 21.361 54.3036 21.6867 54.6818 21.7046C55.0856 21.7236 55.4189 21.4018 55.4189 21.0022V20.2053H56.3564C57.5214 20.2053 58.4658 19.261 58.4658 18.096V10.9168C58.4658 9.61882 57.4342 8.6365 56.193 8.67518Z" fill="#666666"/>
<path d="M45.7627 14.1584C45.7627 13.7707 45.4473 13.4553 45.0596 13.4553H38.9189V15.7991H45.7627V14.1584Z" fill="#666666"/>
</g>
<defs>
<clipPath id="clip0_26558_203">
<rect width="24" height="24" fill="white" transform="translate(34.4658 0.752197)"/>
</clipPath>
</defs>
</svg>
