<svg width="48" height="57" viewBox="0 0 48 57" fill="none" xmlns="http://www.w3.org/2000/svg">
<g clip-path="url(#clip0_26558_240)">
<path d="M36.4658 7.20276V2.51526C36.4658 1.61062 35.7298 0.874634 34.8252 0.874634H26.3877C25.4831 0.874634 24.7471 1.61062 24.7471 2.51526V7.20276C24.7471 8.1074 25.4831 8.84338 26.3877 8.84338H28.2997L27.9481 10.2496H24.0127L23.8699 7.10699C23.8185 5.97787 22.8929 5.09338 21.7627 5.09338H17.8878C16.7575 5.09338 15.8319 5.97787 15.7805 7.10699L15.6377 10.2496H13.1689C12.7806 10.2496 12.4658 10.5644 12.4658 10.9528V23.1403C12.4658 23.5286 12.7806 23.8434 13.1689 23.8434C13.5573 23.8434 13.8721 23.5286 13.8721 23.1403V14.4684H15.47C15.5212 15.0472 15.7642 15.5869 16.1734 16.0152C16.5896 16.4506 17.1286 16.7196 17.7159 16.7917V17.984C17.7159 18.8091 18.3281 19.4935 19.1221 19.6076V21.2974L16.3508 22.0892C16.0489 22.1754 15.8408 22.4513 15.8408 22.7653V24.1715C15.8408 24.5598 16.1556 24.8746 16.5439 24.8746C16.9323 24.8746 17.2471 24.5598 17.2471 24.1715V23.2956L19.1221 22.7599V23.7028C19.1221 24.0911 19.4369 24.4059 19.8252 24.4059C20.2135 24.4059 20.5283 24.0911 20.5283 23.7028V22.7599L22.4033 23.2957V24.1715C22.4033 24.5598 22.7181 24.8746 23.1064 24.8746C23.4948 24.8746 23.8096 24.5598 23.8096 24.1715V22.7653C23.8096 22.4513 23.6015 22.1754 23.2996 22.0892L20.5283 21.2974V19.6077C21.3223 19.4936 21.9346 18.8091 21.9346 17.9841V16.7918C22.5219 16.7196 23.0608 16.4507 23.477 16.0152C23.8862 15.587 24.1292 15.0473 24.1804 14.4684H25.6846V23.1403C25.6846 23.5286 25.9994 23.8434 26.3877 23.8434C26.776 23.8434 27.0908 23.5286 27.0908 23.1403V21.0309H35.0596V23.1403C35.0596 23.5286 35.3744 23.8434 35.7627 23.8434C36.151 23.8434 36.4658 23.5286 36.4658 23.1403V10.9528C36.4658 10.5644 36.151 10.2496 35.7627 10.2496H33.2648L32.9132 8.84338H34.8252C35.7298 8.84338 36.4658 8.1074 36.4658 7.20276ZM15.5098 13.0621H13.8721V11.6559H15.5738L15.5098 13.0621ZM20.5283 17.984C20.5283 18.1132 20.4232 18.2184 20.2939 18.2184H19.3564C19.2272 18.2184 19.1221 18.1132 19.1221 17.984V16.8121H20.5283V17.984ZM22.4603 15.0436C22.2371 15.2772 21.9362 15.4059 21.6131 15.4059H18.0374C17.7143 15.4059 17.4134 15.2772 17.1902 15.0436C16.9669 14.81 16.8521 14.5035 16.8667 14.1808L17.1853 7.17079C17.2024 6.79448 17.511 6.49963 17.8877 6.49963H21.7626C22.1394 6.49963 22.4479 6.79448 22.4651 7.17084L22.7837 14.1808C22.7984 14.5036 22.6835 14.81 22.4603 15.0436ZM35.0596 19.6246H27.0908V14.4684H35.0596V19.6246ZM35.0596 11.6559V13.0621H24.1406L24.0766 11.6559H35.0596ZM29.3976 10.2496L29.7491 8.84338H31.4637L31.8153 10.2496H29.3976ZM26.3877 7.43713C26.2585 7.43713 26.1533 7.33199 26.1533 7.20276V2.51526C26.1533 2.38602 26.2585 2.28088 26.3877 2.28088H34.8252C34.9544 2.28088 35.0596 2.38602 35.0596 2.51526V7.20276C35.0596 7.33199 34.9544 7.43713 34.8252 7.43713H26.3877Z" fill="white"/>
<path d="M29.6689 17.2809H32.4814C32.8698 17.2809 33.1846 16.9661 33.1846 16.5778C33.1846 16.1894 32.8698 15.8746 32.4814 15.8746H29.6689C29.2806 15.8746 28.9658 16.1894 28.9658 16.5778C28.9658 16.9661 29.2806 17.2809 29.6689 17.2809Z" fill="white"/>
</g>
<path d="M7.26982 51.6562C6.16049 51.6562 5.18982 51.4109 4.35782 50.9202C3.52582 50.4296 2.87515 49.7522 2.40582 48.8882C1.93649 48.0136 1.70182 47.0056 1.70182 45.8642C1.70182 44.7229 1.93649 43.7202 2.40582 42.8562C2.87515 41.9816 3.52582 41.2989 4.35782 40.8082C5.18982 40.3176 6.16049 40.0722 7.26982 40.0722C8.37915 40.0722 9.34982 40.3176 10.1818 40.8082C11.0138 41.2989 11.6592 41.9816 12.1178 42.8562C12.5872 43.7202 12.8218 44.7229 12.8218 45.8642C12.8218 47.0056 12.5872 48.0136 12.1178 48.8882C11.6592 49.7522 11.0138 50.4296 10.1818 50.9202C9.34982 51.4109 8.37915 51.6562 7.26982 51.6562ZM7.26982 50.1362C8.03782 50.1362 8.70449 49.9656 9.26982 49.6242C9.84582 49.2829 10.2938 48.7922 10.6138 48.1522C10.9338 47.5122 11.0938 46.7496 11.0938 45.8642C11.0938 44.9789 10.9338 44.2162 10.6138 43.5762C10.2938 42.9362 9.84582 42.4456 9.26982 42.1042C8.70449 41.7629 8.03782 41.5922 7.26982 41.5922C6.50182 41.5922 5.82982 41.7629 5.25382 42.1042C4.67782 42.4456 4.22982 42.9362 3.90982 43.5762C3.60049 44.2162 3.44582 44.9789 3.44582 45.8642C3.44582 46.7496 3.60049 47.5122 3.90982 48.1522C4.22982 48.7922 4.67782 49.2829 5.25382 49.6242C5.82982 49.9656 6.50182 50.1362 7.26982 50.1362ZM15.0472 51.4642V44.9522H13.9112V43.5282H15.0472V42.3762C15.0472 41.5122 15.2605 40.8936 15.6872 40.5202C16.1245 40.1362 16.7379 39.9442 17.5272 39.9442H18.3592V41.3842H17.7832C17.4099 41.3842 17.1432 41.4642 16.9832 41.6242C16.8232 41.7736 16.7432 42.0296 16.7432 42.3922V43.5282H18.5672V44.9522H16.7432V51.4642H15.0472ZM20.5784 51.4642V44.9522H19.4424V43.5282H20.5784V42.3762C20.5784 41.5122 20.7918 40.8936 21.2184 40.5202C21.6558 40.1362 22.2691 39.9442 23.0584 39.9442H23.8904V41.3842H23.3144C22.9411 41.3842 22.6744 41.4642 22.5144 41.6242C22.3544 41.7736 22.2744 42.0296 22.2744 42.3922V43.5282H27.2984V51.4642H25.6024V44.9522H22.2744V51.4642H20.5784ZM26.4664 42.2002C26.1464 42.2002 25.8798 42.1042 25.6664 41.9122C25.4638 41.7096 25.3624 41.4536 25.3624 41.1442C25.3624 40.8456 25.4638 40.6002 25.6664 40.4082C25.8798 40.2162 26.1464 40.1202 26.4664 40.1202C26.7864 40.1202 27.0478 40.2162 27.2504 40.4082C27.4638 40.6002 27.5704 40.8456 27.5704 41.1442C27.5704 41.4536 27.4638 41.7096 27.2504 41.9122C27.0478 42.1042 26.7864 42.2002 26.4664 42.2002ZM33.3134 51.6562C32.5348 51.6562 31.8361 51.4802 31.2174 51.1282C30.6094 50.7762 30.1294 50.2909 29.7774 49.6722C29.4361 49.0429 29.2654 48.3176 29.2654 47.4962C29.2654 46.6749 29.4361 45.9549 29.7774 45.3362C30.1294 44.7069 30.6094 44.2162 31.2174 43.8642C31.8361 43.5122 32.5348 43.3362 33.3134 43.3362C34.2948 43.3362 35.1161 43.5922 35.7774 44.1042C36.4494 44.6162 36.8814 45.3096 37.0734 46.1842H35.2974C35.1908 45.7469 34.9561 45.4056 34.5934 45.1602C34.2308 44.9149 33.8041 44.7922 33.3134 44.7922C32.8974 44.7922 32.5134 44.8989 32.1614 45.1122C31.8094 45.3149 31.5268 45.6189 31.3134 46.0242C31.1001 46.4189 30.9934 46.9096 30.9934 47.4962C30.9934 48.0829 31.1001 48.5789 31.3134 48.9842C31.5268 49.3789 31.8094 49.6829 32.1614 49.8962C32.5134 50.1096 32.8974 50.2162 33.3134 50.2162C33.8041 50.2162 34.2308 50.0936 34.5934 49.8482C34.9561 49.6029 35.1908 49.2562 35.2974 48.8082H37.0734C36.8921 49.6616 36.4654 50.3496 35.7934 50.8722C35.1214 51.3949 34.2948 51.6562 33.3134 51.6562ZM42.6248 51.6562C41.8462 51.6562 41.1528 51.4856 40.5448 51.1442C39.9475 50.7922 39.4782 50.3069 39.1368 49.6882C38.7955 49.0696 38.6248 48.3496 38.6248 47.5282C38.6248 46.6962 38.7902 45.9656 39.1208 45.3362C39.4622 44.7069 39.9315 44.2162 40.5288 43.8642C41.1368 43.5122 41.8408 43.3362 42.6408 43.3362C43.4195 43.3362 44.0968 43.5122 44.6728 43.8642C45.2488 44.2056 45.6968 44.6642 46.0168 45.2402C46.3368 45.8162 46.4968 46.4509 46.4968 47.1442C46.4968 47.2509 46.4915 47.3682 46.4808 47.4962C46.4808 47.6136 46.4755 47.7469 46.4648 47.8962H40.2888C40.3422 48.6642 40.5928 49.2509 41.0408 49.6562C41.4995 50.0509 42.0275 50.2482 42.6248 50.2482C43.1048 50.2482 43.5048 50.1416 43.8248 49.9282C44.1555 49.7042 44.4008 49.4056 44.5608 49.0322H46.2568C46.0435 49.7789 45.6168 50.4029 44.9768 50.9042C44.3475 51.4056 43.5635 51.6562 42.6248 51.6562ZM42.6248 44.7282C42.0595 44.7282 41.5582 44.8989 41.1208 45.2402C40.6835 45.5709 40.4168 46.0722 40.3208 46.7442H44.8008C44.7688 46.1256 44.5502 45.6349 44.1448 45.2722C43.7395 44.9096 43.2328 44.7282 42.6248 44.7282Z" fill="white"/>
<defs>
<clipPath id="clip0_26558_240">
<rect width="24" height="24" fill="white" transform="translate(12.4658 0.874634)"/>
</clipPath>
</defs>
</svg>
